<svg width="28" height="28" viewBox="0 0 28 28" fill="none" xmlns="http://www.w3.org/2000/svg">
<rect x="1" y="1" width="26" height="26" rx="11" fill="#4263EB" stroke="white" stroke-width="2"/>
<path d="M17.5 10.5001C17.1442 10.5001 16.8175 10.2959 16.6542 9.98091L16.2342 9.13508C15.9658 8.60425 15.2658 8.16675 14.6708 8.16675H13.335C12.7342 8.16675 12.0342 8.60425 11.7658 9.13508L11.3458 9.98091C11.1825 10.2959 10.8558 10.5001 10.5 10.5001C9.23418 10.5001 8.23085 11.5676 8.31252 12.8276L8.61585 17.6459C8.68585 18.8476 9.33335 19.8334 10.9433 19.8334H17.0567C18.6667 19.8334 19.3083 18.8476 19.3842 17.6459L19.6875 12.8276C19.7692 11.5676 18.7658 10.5001 17.5 10.5001ZM13.125 11.2292H14.875C15.1142 11.2292 15.3125 11.4276 15.3125 11.6667C15.3125 11.9059 15.1142 12.1042 14.875 12.1042H13.125C12.8858 12.1042 12.6875 11.9059 12.6875 11.6667C12.6875 11.4276 12.8858 11.2292 13.125 11.2292ZM14 17.5701C12.915 17.5701 12.0283 16.6892 12.0283 15.5984C12.0283 14.5076 12.9092 13.6267 14 13.6267C15.0908 13.6267 15.9717 14.5076 15.9717 15.5984C15.9717 16.6892 15.085 17.5701 14 17.5701Z" fill="white"/>
</svg>
