<svg width="373" height="222" viewBox="0 0 373 222" fill="none" xmlns="http://www.w3.org/2000/svg">
<g filter="url(#filter0_d_63_4364)">
<rect x="16" y="26" width="311" height="180" rx="16" fill="white"/>
</g>
<mask id="mask0_63_4364" style="mask-type:alpha" maskUnits="userSpaceOnUse" x="16" y="26" width="311" height="180">
<rect x="16" y="26" width="311" height="180" rx="16" fill="#2378FA"/>
</mask>
<g mask="url(#mask0_63_4364)">
<path d="M177 65.8806C168.779 44.8347 169 10 169 10H377.5V218H252C252 218 249.804 183.149 242.431 162.378C226.5 117.5 196.774 116.5 177 65.8806Z" stroke="#EDF0FD" stroke-opacity="0.7"/>
<path d="M186 65.8806C177.779 44.8347 179 10 179 10H386.5V218H261C261 218 258.116 183.38 251.431 162.378C237.621 118.989 202.568 108.293 186 65.8806Z" fill="#F0EEFE"/>
</g>
<path d="M64.98 65H66.884V60.912H70.3V59.008H66.884V56.824H71.14V54.92H64.98V65ZM72.4038 56.39H74.3078V54.71H72.4038V56.39ZM72.4038 65H74.3078V57.44H72.4038V65ZM76.2524 65H78.1844V61.164C78.1844 60.6927 78.2357 60.3147 78.3384 60.03C78.4457 59.7453 78.5811 59.5307 78.7444 59.386C78.9077 59.2367 79.0827 59.1363 79.2694 59.085C79.4561 59.0337 79.6311 59.008 79.7944 59.008C80.2004 59.008 80.5131 59.099 80.7324 59.281C80.9564 59.463 81.1174 59.6893 81.2154 59.96C81.3134 60.2307 81.3717 60.5013 81.3904 60.772C81.4091 61.038 81.4184 61.2573 81.4184 61.43V65H83.3504V60.758C83.3504 60.632 83.3411 60.4313 83.3224 60.156C83.3037 59.8807 83.2501 59.5773 83.1614 59.246C83.0727 58.91 82.9234 58.588 82.7134 58.28C82.5081 57.972 82.2187 57.7177 81.8454 57.517C81.4721 57.3163 80.9891 57.216 80.3964 57.216C79.8504 57.216 79.3744 57.307 78.9684 57.489C78.5624 57.671 78.2217 57.9137 77.9464 58.217V57.44H76.2524V65ZM85.0128 68.36H86.9308V64.727C87.1781 64.881 87.4511 65 87.7498 65.084C88.0531 65.168 88.3821 65.21 88.7368 65.21C89.4321 65.21 90.0411 65.035 90.5638 64.685C91.0865 64.335 91.4925 63.859 91.7818 63.257C92.0758 62.655 92.2228 61.976 92.2228 61.22C92.2228 60.45 92.0735 59.7663 91.7748 59.169C91.4808 58.567 91.0655 58.0933 90.5288 57.748C89.9921 57.4027 89.3621 57.23 88.6388 57.23C88.2468 57.23 87.8875 57.286 87.5608 57.398C87.2388 57.5053 86.9495 57.6593 86.6928 57.86V57.44H85.0128V68.36ZM88.4288 63.516C87.7941 63.516 87.3461 63.306 87.0848 62.886C86.8235 62.4613 86.6928 61.906 86.6928 61.22C86.6928 60.534 86.8211 59.981 87.0778 59.561C87.3391 59.1363 87.7661 58.924 88.3588 58.924C88.7835 58.924 89.1311 59.029 89.4018 59.239C89.6771 59.4443 89.8801 59.722 90.0108 60.072C90.1415 60.4173 90.2068 60.8 90.2068 61.22C90.2068 61.6447 90.1438 62.032 90.0178 62.382C89.8918 62.7273 89.6981 63.0027 89.4368 63.208C89.1755 63.4133 88.8395 63.516 88.4288 63.516ZM95.7231 65.21C96.3065 65.21 96.7965 65.1213 97.1931 64.944C97.5945 64.762 97.9631 64.4727 98.2991 64.076V65H99.9651V60.38C99.9651 60.0347 99.9511 59.722 99.9231 59.442C99.8951 59.162 99.8065 58.882 99.6571 58.602C99.3911 58.098 98.9991 57.7433 98.4811 57.538C97.9631 57.3327 97.3705 57.23 96.7031 57.23C95.7931 57.23 95.0745 57.426 94.5471 57.818C94.0198 58.21 93.6605 58.7187 93.4691 59.344L95.1911 59.89C95.3125 59.5447 95.5248 59.3043 95.8281 59.169C96.1315 59.0337 96.4231 58.966 96.7031 58.966C97.1511 58.966 97.4848 59.05 97.7041 59.218C97.9235 59.3813 98.0518 59.6403 98.0891 59.995C97.3798 60.0977 96.7545 60.198 96.2131 60.296C95.6718 60.3893 95.2191 60.5013 94.8551 60.632C94.2485 60.856 93.8215 61.1617 93.5741 61.549C93.3268 61.9317 93.2031 62.3867 93.2031 62.914C93.2031 63.334 93.2988 63.719 93.4901 64.069C93.6861 64.4143 93.9708 64.692 94.3441 64.902C94.7221 65.1073 95.1818 65.21 95.7231 65.21ZM96.1291 63.712C95.8025 63.712 95.5435 63.6397 95.3521 63.495C95.1608 63.3457 95.0651 63.1427 95.0651 62.886C95.0651 62.6947 95.1258 62.5313 95.2471 62.396C95.3685 62.256 95.5691 62.13 95.8491 62.018C96.0638 61.9387 96.3275 61.8663 96.6401 61.801C96.9575 61.731 97.4358 61.6423 98.0751 61.535C98.0705 61.717 98.0565 61.9177 98.0331 62.137C98.0098 62.3517 97.9585 62.5407 97.8791 62.704C97.8278 62.8113 97.7298 62.9443 97.5851 63.103C97.4451 63.2617 97.2538 63.404 97.0111 63.53C96.7731 63.6513 96.4791 63.712 96.1291 63.712ZM102.187 68.36H103.951L108.221 57.44H106.317L104.343 62.585L102.355 57.44H100.381L103.433 64.937L102.187 68.36ZM116.055 65.21C117.212 65.21 118.183 64.923 118.967 64.349C119.755 63.775 120.311 62.998 120.633 62.018L118.715 61.486C118.528 62.0927 118.213 62.5663 117.77 62.907C117.326 63.2477 116.755 63.418 116.055 63.418C115.098 63.418 114.377 63.1053 113.892 62.48C113.411 61.85 113.171 61.01 113.171 59.96C113.171 58.91 113.411 58.0723 113.892 57.447C114.377 56.817 115.098 56.502 116.055 56.502C116.755 56.502 117.326 56.6723 117.77 57.013C118.213 57.349 118.528 57.8227 118.715 58.434L120.633 57.902C120.311 56.922 119.755 56.145 118.967 55.571C118.183 54.997 117.212 54.71 116.055 54.71C115.047 54.71 114.176 54.9293 113.444 55.368C112.716 55.8067 112.153 56.4203 111.757 57.209C111.365 57.9977 111.169 58.9147 111.169 59.96C111.169 61.0053 111.365 61.9223 111.757 62.711C112.153 63.4997 112.716 64.1133 113.444 64.552C114.176 64.9907 115.047 65.21 116.055 65.21ZM124.134 65.21C124.717 65.21 125.207 65.1213 125.604 64.944C126.005 64.762 126.374 64.4727 126.71 64.076V65H128.376V60.38C128.376 60.0347 128.362 59.722 128.334 59.442C128.306 59.162 128.217 58.882 128.068 58.602C127.802 58.098 127.41 57.7433 126.892 57.538C126.374 57.3327 125.781 57.23 125.114 57.23C124.204 57.23 123.485 57.426 122.958 57.818C122.43 58.21 122.071 58.7187 121.88 59.344L123.602 59.89C123.723 59.5447 123.935 59.3043 124.239 59.169C124.542 59.0337 124.834 58.966 125.114 58.966C125.562 58.966 125.895 59.05 126.115 59.218C126.334 59.3813 126.462 59.6403 126.5 59.995C125.79 60.0977 125.165 60.198 124.624 60.296C124.082 60.3893 123.63 60.5013 123.266 60.632C122.659 60.856 122.232 61.1617 121.985 61.549C121.737 61.9317 121.614 62.3867 121.614 62.914C121.614 63.334 121.709 63.719 121.901 64.069C122.097 64.4143 122.381 64.692 122.755 64.902C123.133 65.1073 123.592 65.21 124.134 65.21ZM124.54 63.712C124.213 63.712 123.954 63.6397 123.763 63.495C123.571 63.3457 123.476 63.1427 123.476 62.886C123.476 62.6947 123.536 62.5313 123.658 62.396C123.779 62.256 123.98 62.13 124.26 62.018C124.474 61.9387 124.738 61.8663 125.051 61.801C125.368 61.731 125.846 61.6423 126.486 61.535C126.481 61.717 126.467 61.9177 126.444 62.137C126.42 62.3517 126.369 62.5407 126.29 62.704C126.238 62.8113 126.14 62.9443 125.996 63.103C125.856 63.2617 125.664 63.404 125.422 63.53C125.184 63.6513 124.89 63.712 124.54 63.712ZM130.056 65H131.974V61.136C131.974 60.2587 132.319 59.6613 133.01 59.344C133.234 59.2367 133.484 59.1737 133.759 59.155C134.039 59.1317 134.284 59.1527 134.494 59.218V57.44C134.153 57.398 133.813 57.4073 133.472 57.468C133.131 57.524 132.823 57.636 132.548 57.804C132.371 57.9067 132.214 58.0303 132.079 58.175C131.948 58.3197 131.834 58.4807 131.736 58.658V57.44H130.056V65ZM138.615 65.21C139.03 65.21 139.408 65.154 139.749 65.042C140.089 64.93 140.393 64.7713 140.659 64.566V65H142.339V54.92H140.421V57.692C140.187 57.5427 139.926 57.4283 139.637 57.349C139.352 57.2697 139.044 57.23 138.713 57.23C137.989 57.23 137.359 57.4027 136.823 57.748C136.286 58.0933 135.868 58.567 135.57 59.169C135.276 59.7663 135.129 60.45 135.129 61.22C135.129 61.976 135.273 62.655 135.563 63.257C135.857 63.859 136.265 64.335 136.788 64.685C137.31 65.035 137.919 65.21 138.615 65.21ZM138.923 63.516C138.512 63.516 138.176 63.4133 137.915 63.208C137.653 63.0027 137.46 62.7273 137.334 62.382C137.208 62.032 137.145 61.6447 137.145 61.22C137.145 60.8 137.21 60.4173 137.341 60.072C137.471 59.722 137.672 59.4443 137.943 59.239C138.218 59.029 138.568 58.924 138.993 58.924C139.59 58.924 140.017 59.1363 140.274 59.561C140.53 59.981 140.659 60.534 140.659 61.22C140.659 61.906 140.528 62.4613 140.267 62.886C140.01 63.306 139.562 63.516 138.923 63.516Z" fill="#0C2073"/>
<path fill-rule="evenodd" clip-rule="evenodd" d="M45 55L50 50V60H40L45 55ZM50 60H60C60 60 54.9707 60.9436 53.0571 62.8571C51.0655 64.8488 50 70 50 70V60Z" fill="#0C2073"/>
<path fill-rule="evenodd" clip-rule="evenodd" d="M45 55L50 50V60H40L45 55ZM50 60H60C60 60 54.9707 60.9436 53.0571 62.8571C51.0655 64.8488 50 70 50 70V60Z" fill="#6C56F9"/>
<path d="M64.98 65H66.884V60.912H70.3V59.008H66.884V56.824H71.14V54.92H64.98V65ZM72.4038 56.39H74.3078V54.71H72.4038V56.39ZM72.4038 65H74.3078V57.44H72.4038V65ZM76.2524 65H78.1844V61.164C78.1844 60.6927 78.2357 60.3147 78.3384 60.03C78.4457 59.7453 78.5811 59.5307 78.7444 59.386C78.9077 59.2367 79.0827 59.1363 79.2694 59.085C79.4561 59.0337 79.6311 59.008 79.7944 59.008C80.2004 59.008 80.5131 59.099 80.7324 59.281C80.9564 59.463 81.1174 59.6893 81.2154 59.96C81.3134 60.2307 81.3717 60.5013 81.3904 60.772C81.4091 61.038 81.4184 61.2573 81.4184 61.43V65H83.3504V60.758C83.3504 60.632 83.3411 60.4313 83.3224 60.156C83.3037 59.8807 83.2501 59.5773 83.1614 59.246C83.0727 58.91 82.9234 58.588 82.7134 58.28C82.5081 57.972 82.2187 57.7177 81.8454 57.517C81.4721 57.3163 80.9891 57.216 80.3964 57.216C79.8504 57.216 79.3744 57.307 78.9684 57.489C78.5624 57.671 78.2217 57.9137 77.9464 58.217V57.44H76.2524V65ZM85.0128 68.36H86.9308V64.727C87.1781 64.881 87.4511 65 87.7498 65.084C88.0531 65.168 88.3821 65.21 88.7368 65.21C89.4321 65.21 90.0411 65.035 90.5638 64.685C91.0865 64.335 91.4925 63.859 91.7818 63.257C92.0758 62.655 92.2228 61.976 92.2228 61.22C92.2228 60.45 92.0735 59.7663 91.7748 59.169C91.4808 58.567 91.0655 58.0933 90.5288 57.748C89.9921 57.4027 89.3621 57.23 88.6388 57.23C88.2468 57.23 87.8875 57.286 87.5608 57.398C87.2388 57.5053 86.9495 57.6593 86.6928 57.86V57.44H85.0128V68.36ZM88.4288 63.516C87.7941 63.516 87.3461 63.306 87.0848 62.886C86.8235 62.4613 86.6928 61.906 86.6928 61.22C86.6928 60.534 86.8211 59.981 87.0778 59.561C87.3391 59.1363 87.7661 58.924 88.3588 58.924C88.7835 58.924 89.1311 59.029 89.4018 59.239C89.6771 59.4443 89.8801 59.722 90.0108 60.072C90.1415 60.4173 90.2068 60.8 90.2068 61.22C90.2068 61.6447 90.1438 62.032 90.0178 62.382C89.8918 62.7273 89.6981 63.0027 89.4368 63.208C89.1755 63.4133 88.8395 63.516 88.4288 63.516ZM95.7231 65.21C96.3065 65.21 96.7965 65.1213 97.1931 64.944C97.5945 64.762 97.9631 64.4727 98.2991 64.076V65H99.9651V60.38C99.9651 60.0347 99.9511 59.722 99.9231 59.442C99.8951 59.162 99.8065 58.882 99.6571 58.602C99.3911 58.098 98.9991 57.7433 98.4811 57.538C97.9631 57.3327 97.3705 57.23 96.7031 57.23C95.7931 57.23 95.0745 57.426 94.5471 57.818C94.0198 58.21 93.6605 58.7187 93.4691 59.344L95.1911 59.89C95.3125 59.5447 95.5248 59.3043 95.8281 59.169C96.1315 59.0337 96.4231 58.966 96.7031 58.966C97.1511 58.966 97.4848 59.05 97.7041 59.218C97.9235 59.3813 98.0518 59.6403 98.0891 59.995C97.3798 60.0977 96.7545 60.198 96.2131 60.296C95.6718 60.3893 95.2191 60.5013 94.8551 60.632C94.2485 60.856 93.8215 61.1617 93.5741 61.549C93.3268 61.9317 93.2031 62.3867 93.2031 62.914C93.2031 63.334 93.2988 63.719 93.4901 64.069C93.6861 64.4143 93.9708 64.692 94.3441 64.902C94.7221 65.1073 95.1818 65.21 95.7231 65.21ZM96.1291 63.712C95.8025 63.712 95.5435 63.6397 95.3521 63.495C95.1608 63.3457 95.0651 63.1427 95.0651 62.886C95.0651 62.6947 95.1258 62.5313 95.2471 62.396C95.3685 62.256 95.5691 62.13 95.8491 62.018C96.0638 61.9387 96.3275 61.8663 96.6401 61.801C96.9575 61.731 97.4358 61.6423 98.0751 61.535C98.0705 61.717 98.0565 61.9177 98.0331 62.137C98.0098 62.3517 97.9585 62.5407 97.8791 62.704C97.8278 62.8113 97.7298 62.9443 97.5851 63.103C97.4451 63.2617 97.2538 63.404 97.0111 63.53C96.7731 63.6513 96.4791 63.712 96.1291 63.712ZM102.187 68.36H103.951L108.221 57.44H106.317L104.343 62.585L102.355 57.44H100.381L103.433 64.937L102.187 68.36ZM116.055 65.21C117.212 65.21 118.183 64.923 118.967 64.349C119.755 63.775 120.311 62.998 120.633 62.018L118.715 61.486C118.528 62.0927 118.213 62.5663 117.77 62.907C117.326 63.2477 116.755 63.418 116.055 63.418C115.098 63.418 114.377 63.1053 113.892 62.48C113.411 61.85 113.171 61.01 113.171 59.96C113.171 58.91 113.411 58.0723 113.892 57.447C114.377 56.817 115.098 56.502 116.055 56.502C116.755 56.502 117.326 56.6723 117.77 57.013C118.213 57.349 118.528 57.8227 118.715 58.434L120.633 57.902C120.311 56.922 119.755 56.145 118.967 55.571C118.183 54.997 117.212 54.71 116.055 54.71C115.047 54.71 114.176 54.9293 113.444 55.368C112.716 55.8067 112.153 56.4203 111.757 57.209C111.365 57.9977 111.169 58.9147 111.169 59.96C111.169 61.0053 111.365 61.9223 111.757 62.711C112.153 63.4997 112.716 64.1133 113.444 64.552C114.176 64.9907 115.047 65.21 116.055 65.21ZM124.134 65.21C124.717 65.21 125.207 65.1213 125.604 64.944C126.005 64.762 126.374 64.4727 126.71 64.076V65H128.376V60.38C128.376 60.0347 128.362 59.722 128.334 59.442C128.306 59.162 128.217 58.882 128.068 58.602C127.802 58.098 127.41 57.7433 126.892 57.538C126.374 57.3327 125.781 57.23 125.114 57.23C124.204 57.23 123.485 57.426 122.958 57.818C122.43 58.21 122.071 58.7187 121.88 59.344L123.602 59.89C123.723 59.5447 123.935 59.3043 124.239 59.169C124.542 59.0337 124.834 58.966 125.114 58.966C125.562 58.966 125.895 59.05 126.115 59.218C126.334 59.3813 126.462 59.6403 126.5 59.995C125.79 60.0977 125.165 60.198 124.624 60.296C124.082 60.3893 123.63 60.5013 123.266 60.632C122.659 60.856 122.232 61.1617 121.985 61.549C121.737 61.9317 121.614 62.3867 121.614 62.914C121.614 63.334 121.709 63.719 121.901 64.069C122.097 64.4143 122.381 64.692 122.755 64.902C123.133 65.1073 123.592 65.21 124.134 65.21ZM124.54 63.712C124.213 63.712 123.954 63.6397 123.763 63.495C123.571 63.3457 123.476 63.1427 123.476 62.886C123.476 62.6947 123.536 62.5313 123.658 62.396C123.779 62.256 123.98 62.13 124.26 62.018C124.474 61.9387 124.738 61.8663 125.051 61.801C125.368 61.731 125.846 61.6423 126.486 61.535C126.481 61.717 126.467 61.9177 126.444 62.137C126.42 62.3517 126.369 62.5407 126.29 62.704C126.238 62.8113 126.14 62.9443 125.996 63.103C125.856 63.2617 125.664 63.404 125.422 63.53C125.184 63.6513 124.89 63.712 124.54 63.712ZM130.056 65H131.974V61.136C131.974 60.2587 132.319 59.6613 133.01 59.344C133.234 59.2367 133.484 59.1737 133.759 59.155C134.039 59.1317 134.284 59.1527 134.494 59.218V57.44C134.153 57.398 133.813 57.4073 133.472 57.468C133.131 57.524 132.823 57.636 132.548 57.804C132.371 57.9067 132.214 58.0303 132.079 58.175C131.948 58.3197 131.834 58.4807 131.736 58.658V57.44H130.056V65ZM138.615 65.21C139.03 65.21 139.408 65.154 139.749 65.042C140.089 64.93 140.393 64.7713 140.659 64.566V65H142.339V54.92H140.421V57.692C140.187 57.5427 139.926 57.4283 139.637 57.349C139.352 57.2697 139.044 57.23 138.713 57.23C137.989 57.23 137.359 57.4027 136.823 57.748C136.286 58.0933 135.868 58.567 135.57 59.169C135.276 59.7663 135.129 60.45 135.129 61.22C135.129 61.976 135.273 62.655 135.563 63.257C135.857 63.859 136.265 64.335 136.788 64.685C137.31 65.035 137.919 65.21 138.615 65.21ZM138.923 63.516C138.512 63.516 138.176 63.4133 137.915 63.208C137.653 63.0027 137.46 62.7273 137.334 62.382C137.208 62.032 137.145 61.6447 137.145 61.22C137.145 60.8 137.21 60.4173 137.341 60.072C137.471 59.722 137.672 59.4443 137.943 59.239C138.218 59.029 138.568 58.924 138.993 58.924C139.59 58.924 140.017 59.1363 140.274 59.561C140.53 59.981 140.659 60.534 140.659 61.22C140.659 61.906 140.528 62.4613 140.267 62.886C140.01 63.306 139.562 63.516 138.923 63.516Z" fill="#15141F"/>
<path d="M46.192 141.4H49.456V139.228C50.96 138.964 52.164 138.356 53.068 137.404C53.972 136.444 54.424 135.264 54.424 133.864C54.424 132.624 54.084 131.628 53.404 130.876C52.732 130.124 51.632 129.528 50.104 129.088L47.056 128.224C46.288 128.008 45.728 127.752 45.376 127.456C45.024 127.152 44.848 126.792 44.848 126.376C44.848 125.808 45.12 125.336 45.664 124.96C46.216 124.584 46.888 124.408 47.68 124.432C48.512 124.456 49.22 124.708 49.804 125.188C50.396 125.66 50.776 126.28 50.944 127.048L54.304 126.448C53.968 125.128 53.384 124.056 52.552 123.232C51.728 122.4 50.696 121.848 49.456 121.576V119.344H46.192V121.504C44.768 121.736 43.648 122.296 42.832 123.184C42.016 124.072 41.608 125.192 41.608 126.544C41.608 128.792 42.84 130.296 45.304 131.056L49.576 132.376C50.648 132.728 51.184 133.304 51.184 134.104C51.184 134.728 50.884 135.252 50.284 135.676C49.692 136.1 48.944 136.312 48.04 136.312C47.08 136.312 46.252 136.032 45.556 135.472C44.868 134.912 44.416 134.16 44.2 133.216L40.96 133.72C41.176 135.176 41.744 136.384 42.664 137.344C43.592 138.304 44.768 138.924 46.192 139.204V141.4ZM56.335 138.976H68.431V135.904H61.399L65.263 132.52C65.951 131.92 66.531 131.384 67.003 130.912C67.475 130.432 67.831 129.912 68.071 129.352C68.311 128.784 68.431 128.072 68.431 127.216C68.431 126.056 68.175 125.036 67.663 124.156C67.151 123.276 66.447 122.592 65.551 122.104C64.663 121.608 63.655 121.36 62.527 121.36C61.295 121.36 60.215 121.596 59.287 122.068C58.359 122.54 57.635 123.208 57.115 124.072C56.595 124.936 56.335 125.96 56.335 127.144H59.695C59.679 126.664 59.787 126.22 60.019 125.812C60.251 125.396 60.575 125.064 60.991 124.816C61.415 124.56 61.903 124.432 62.455 124.432C63.247 124.432 63.879 124.692 64.351 125.212C64.831 125.724 65.071 126.376 65.071 127.168C65.071 127.536 64.959 127.932 64.735 128.356C64.511 128.78 64.127 129.232 63.583 129.712L56.335 136.144V138.976ZM70.8194 142.24C71.9234 142.416 72.7434 142.208 73.2794 141.616C73.8154 141.024 74.0834 140.152 74.0834 139V135.736H70.8194V139H72.4994C72.5874 139.576 72.5034 140.044 72.2474 140.404C71.9994 140.764 71.5874 140.92 71.0114 140.872L70.8194 142.24ZM79.2771 139H82.8051L88.5891 124.792V121.72H77.6931V124.792H85.0851L79.2771 139ZM96.2678 139.312C97.3558 139.312 98.3558 139.06 99.2678 138.556C100.18 138.044 100.912 137.356 101.464 136.492C102.016 135.62 102.292 134.64 102.292 133.552C102.292 132.744 102.144 131.98 101.848 131.26C101.56 130.532 101.132 129.9 100.564 129.364C99.9958 128.82 99.2998 128.428 98.4758 128.188L101.98 124.792V121.72H91.1798V124.792H98.1158L93.4598 128.656L94.9238 131.224C95.3558 130.968 95.8038 130.84 96.2678 130.84C97.0598 130.84 97.7078 131.108 98.2118 131.644C98.7238 132.172 98.9798 132.808 98.9798 133.552C98.9798 134.048 98.8558 134.5 98.6078 134.908C98.3678 135.316 98.0398 135.64 97.6238 135.88C97.2158 136.12 96.7638 136.24 96.2678 136.24C95.6918 136.24 95.1558 136.068 94.6598 135.724C94.1718 135.372 93.8438 134.88 93.6758 134.248L90.5078 135.088C90.7558 135.944 91.1678 136.688 91.7438 137.32C92.3278 137.952 93.0118 138.444 93.7958 138.796C94.5798 139.14 95.4038 139.312 96.2678 139.312ZM111.191 139.36C112.279 139.36 113.279 139.104 114.191 138.592C115.103 138.072 115.835 137.376 116.387 136.504C116.939 135.624 117.215 134.64 117.215 133.552C117.215 132.464 116.979 131.496 116.507 130.648C116.043 129.8 115.395 129.132 114.563 128.644C113.739 128.156 112.783 127.912 111.695 127.912C110.503 127.912 109.439 128.268 108.503 128.98V127.504C108.503 126.976 108.627 126.48 108.875 126.016C109.131 125.544 109.487 125.164 109.943 124.876C110.407 124.58 110.951 124.432 111.575 124.432C112.407 124.432 113.127 124.736 113.735 125.344L116.064 123.016C115.431 122.424 114.735 122.004 113.975 121.756C113.215 121.508 112.415 121.384 111.575 121.384C110.279 121.384 109.151 121.652 108.191 122.188C107.231 122.716 106.487 123.476 105.959 124.468C105.431 125.452 105.167 126.624 105.167 127.984V133C105.167 134.256 105.431 135.364 105.959 136.324C106.487 137.276 107.203 138.02 108.107 138.556C109.019 139.092 110.047 139.36 111.191 139.36ZM111.191 136.24C110.695 136.24 110.243 136.116 109.835 135.868C109.427 135.62 109.103 135.292 108.863 134.884C108.623 134.476 108.503 134.032 108.503 133.552C108.503 133.056 108.623 132.604 108.863 132.196C109.111 131.78 109.439 131.452 109.847 131.212C110.263 130.964 110.719 130.84 111.215 130.84C111.711 130.84 112.163 130.964 112.571 131.212C112.979 131.452 113.303 131.78 113.543 132.196C113.783 132.604 113.903 133.056 113.903 133.552C113.903 134.048 113.779 134.5 113.531 134.908C113.291 135.316 112.963 135.64 112.547 135.88C112.139 136.12 111.687 136.24 111.191 136.24ZM120.385 139H123.649V135.736H120.385V139ZM127.422 139H130.758V121.72H127.422L124.182 123.664V127.264L127.422 125.272V139ZM140.216 139.36C141.304 139.36 142.312 139.104 143.24 138.592C144.168 138.072 144.916 137.376 145.484 136.504C146.052 135.624 146.336 134.64 146.336 133.552C146.336 132.464 146.1 131.5 145.628 130.66C145.164 129.812 144.516 129.148 143.684 128.668C142.86 128.18 141.904 127.936 140.816 127.936C140.44 127.936 140.04 127.984 139.616 128.08C139.192 128.176 138.788 128.328 138.404 128.536L138.644 124.768H145.184V121.72H135.752L135.224 130.912L137.984 131.752C138.176 131.568 138.464 131.376 138.848 131.176C139.232 130.968 139.728 130.864 140.336 130.864C140.832 130.864 141.284 130.984 141.692 131.224C142.108 131.464 142.436 131.788 142.676 132.196C142.924 132.604 143.048 133.056 143.048 133.552C143.048 134.048 142.924 134.5 142.676 134.908C142.436 135.316 142.108 135.64 141.692 135.88C141.284 136.12 140.832 136.24 140.336 136.24C139.776 136.24 139.244 136.06 138.74 135.7C138.236 135.34 137.904 134.856 137.744 134.248L134.6 135.088C134.84 135.936 135.236 136.68 135.788 137.32C136.34 137.96 136.996 138.46 137.756 138.82C138.524 139.18 139.344 139.36 140.216 139.36Z" fill="#15141F"/>
<circle cx="43" cy="171" r="3" fill="#15141F"/>
<circle cx="53" cy="171" r="3" fill="#15141F"/>
<circle cx="63" cy="171" r="3" fill="#15141F"/>
<circle cx="73" cy="171" r="3" fill="#15141F"/>
<path d="M96.536 177.24C97.256 177.24 97.9173 177.067 98.52 176.72C99.128 176.373 99.616 175.909 99.984 175.328C100.352 174.741 100.536 174.091 100.536 173.376C100.536 172.656 100.373 172.011 100.048 171.44C99.728 170.869 99.2853 170.421 98.72 170.096C98.16 169.765 97.52 169.6 96.8 169.6C96.4587 169.6 96.1147 169.653 95.768 169.76C95.4267 169.867 95.1147 170.021 94.832 170.224L95.024 167.056H99.744V165.48H93.528L93.176 171.536L94.632 172.048C94.8133 171.808 95.0667 171.595 95.392 171.408C95.7173 171.216 96.1147 171.12 96.584 171.12C96.9947 171.12 97.3707 171.221 97.712 171.424C98.0587 171.621 98.3333 171.891 98.536 172.232C98.744 172.573 98.848 172.955 98.848 173.376C98.848 173.787 98.7467 174.163 98.544 174.504C98.3413 174.845 98.0693 175.117 97.728 175.32C97.3867 175.523 97.0053 175.624 96.584 175.624C96.104 175.624 95.6533 175.475 95.232 175.176C94.816 174.872 94.5413 174.464 94.408 173.952L92.8 174.384C92.96 174.944 93.2213 175.44 93.584 175.872C93.9467 176.299 94.3813 176.635 94.888 176.88C95.3947 177.12 95.944 177.24 96.536 177.24ZM105.672 177.216C106.392 177.216 107.043 177.053 107.624 176.728C108.205 176.403 108.667 175.955 109.008 175.384C109.349 174.808 109.52 174.155 109.52 173.424C109.52 172.8 109.397 172.229 109.152 171.712C108.912 171.195 108.565 170.771 108.112 170.44C107.664 170.104 107.128 169.893 106.504 169.808L109.352 167.072V165.48H102.424V167.072H107.304L103.784 170.184L104.568 171.504C104.925 171.312 105.288 171.216 105.656 171.216C106.296 171.216 106.813 171.424 107.208 171.84C107.608 172.256 107.808 172.784 107.808 173.424C107.808 174.059 107.611 174.584 107.216 175C106.821 175.411 106.307 175.621 105.672 175.632C105.203 175.637 104.776 175.509 104.392 175.248C104.008 174.987 103.739 174.605 103.584 174.104L101.968 174.552C102.133 175.096 102.397 175.568 102.76 175.968C103.128 176.368 103.563 176.677 104.064 176.896C104.565 177.109 105.101 177.216 105.672 177.216ZM113.612 177H115.316V165.48H113.612L111.444 166.776V168.64L113.612 167.32V177ZM122.042 177.24C122.794 177.24 123.458 177.088 124.034 176.784C124.616 176.48 125.072 176.059 125.402 175.52C125.733 174.981 125.898 174.36 125.898 173.656C125.898 173.08 125.778 172.547 125.538 172.056C125.304 171.56 124.954 171.149 124.49 170.824C125.226 170.232 125.594 169.44 125.594 168.448C125.594 167.792 125.442 167.224 125.138 166.744C124.834 166.264 124.416 165.893 123.882 165.632C123.349 165.371 122.736 165.24 122.042 165.24C121.349 165.24 120.733 165.371 120.194 165.632C119.661 165.893 119.242 166.264 118.938 166.744C118.634 167.224 118.482 167.792 118.482 168.448C118.482 169.419 118.85 170.211 119.586 170.824C119.122 171.155 118.773 171.565 118.538 172.056C118.309 172.547 118.194 173.08 118.194 173.656C118.194 174.36 118.357 174.981 118.682 175.52C119.013 176.059 119.466 176.48 120.042 176.784C120.624 177.088 121.29 177.24 122.042 177.24ZM122.042 170.048C121.514 170.048 121.085 169.915 120.754 169.648C120.424 169.381 120.258 168.981 120.258 168.448C120.258 167.909 120.424 167.507 120.754 167.24C121.085 166.968 121.514 166.832 122.042 166.832C122.57 166.832 122.997 166.968 123.322 167.24C123.653 167.507 123.818 167.909 123.818 168.448C123.818 168.981 123.653 169.381 123.322 169.648C122.997 169.915 122.57 170.048 122.042 170.048ZM122.042 175.648C121.424 175.648 120.922 175.48 120.538 175.144C120.154 174.803 119.962 174.307 119.962 173.656C119.962 173.005 120.152 172.509 120.53 172.168C120.914 171.821 121.418 171.648 122.042 171.648C122.666 171.648 123.168 171.821 123.546 172.168C123.93 172.509 124.122 173.005 124.122 173.656C124.122 174.307 123.93 174.803 123.546 175.144C123.162 175.48 122.661 175.648 122.042 175.648Z" fill="#15141F"/>
<g clip-path="url(#clip0_63_4364)">
<path d="M302.695 171.442V171.072H302.595L302.479 171.326L302.364 171.072H302.264V171.442H302.335V171.164L302.443 171.404H302.517L302.625 171.163V171.442H302.695H302.695ZM302.061 171.442V171.136H302.189V171.073H301.862V171.136H301.99V171.442H302.06H302.061Z" fill="#F79410"/>
<path d="M291.329 173.665H282.676V158.113H291.329L291.329 173.665Z" fill="#FF5F00"/>
<path d="M283.224 165.891C283.224 162.736 284.701 159.926 287.001 158.115C285.26 156.742 283.107 155.997 280.889 156C275.428 156 271 160.428 271 165.891C271 171.353 275.428 175.781 280.889 175.781C283.107 175.785 285.26 175.04 287.001 173.667C284.701 171.856 283.224 169.046 283.224 165.891Z" fill="#EB001B"/>
<path d="M303.004 165.891C303.004 171.353 298.577 175.781 293.115 175.781C290.897 175.785 288.743 175.04 287.002 173.667C289.303 171.856 290.78 169.046 290.78 165.891C290.78 162.736 289.303 159.926 287.002 158.115C288.743 156.742 290.897 155.997 293.115 156C298.577 156 303.004 160.428 303.004 165.891" fill="#F79E1B"/>
</g>
<defs>
<filter id="filter0_d_63_4364" x="-30" y="0" width="403" height="272" filterUnits="userSpaceOnUse" color-interpolation-filters="sRGB">
<feFlood flood-opacity="0" result="BackgroundImageFix"/>
<feColorMatrix in="SourceAlpha" type="matrix" values="0 0 0 0 0 0 0 0 0 0 0 0 0 0 0 0 0 0 127 0" result="hardAlpha"/>
<feOffset dy="20"/>
<feGaussianBlur stdDeviation="23"/>
<feColorMatrix type="matrix" values="0 0 0 0 0.0470588 0 0 0 0 0.12549 0 0 0 0 0.45098 0 0 0 0.1 0"/>
<feBlend mode="normal" in2="BackgroundImageFix" result="effect1_dropShadow_63_4364"/>
<feBlend mode="normal" in="SourceGraphic" in2="effect1_dropShadow_63_4364" result="shape"/>
</filter>
<clipPath id="clip0_63_4364">
<rect width="32" height="24" fill="white" transform="translate(271 154)"/>
</clipPath>
</defs>
</svg>
