<svg width="245" height="296" viewBox="0 0 245 296" fill="none" xmlns="http://www.w3.org/2000/svg">
<rect x="245" width="296" height="245" rx="16" transform="rotate(90 245 0)" fill="#D0C9FD"/>
<mask id="mask0_115_4158" style="mask-type:alpha" maskUnits="userSpaceOnUse" x="0" y="0" width="245" height="296">
<rect x="245" width="296" height="245" rx="16" transform="rotate(90 245 0)" fill="#2378FA"/>
</mask>
<g mask="url(#mask0_115_4158)">
<path d="M190.718 176.489C219.364 168.444 266.778 161.81 266.778 161.81L266.778 372.697L-16.3333 372.697L-16.3333 249.884C-16.3333 249.884 30.7879 247.061 59.3743 240.52C118.432 227.005 132.99 192.703 190.718 176.489Z" fill="#B2A6FC"/>
<mask id="mask1_115_4158" style="mask-type:alpha" maskUnits="userSpaceOnUse" x="-1" y="-279" width="246" height="569">
<rect width="567.584" height="245" transform="matrix(-2.09675e-07 1 1 8.97621e-08 0 -278.325)" fill="white"/>
</mask>
<g mask="url(#mask1_115_4158)">
<mask id="mask2_115_4158" style="mask-type:alpha" maskUnits="userSpaceOnUse" x="-1" y="-279" width="246" height="569">
<rect width="567.584" height="245" transform="matrix(-2.09675e-07 1 1 8.97621e-08 0 -278.325)" fill="white"/>
</mask>
<g mask="url(#mask2_115_4158)">
<mask id="mask3_115_4158" style="mask-type:alpha" maskUnits="userSpaceOnUse" x="-1" y="-247" width="246" height="540">
<path fill-rule="evenodd" clip-rule="evenodd" d="M-0.124512 -246.792L244.876 -246.792L244.875 166.507C244.784 200.414 228.345 219.67 189.615 229.127L29.571 269.539C1.63614 276.853 -0.109322 292.235 -0.124652 292.373" fill="white"/>
</mask>
<g mask="url(#mask3_115_4158)">
<path fill-rule="evenodd" clip-rule="evenodd" d="M35.7346 210.489L103.42 193.323L218.977 222.625C218.977 222.625 243.391 229.796 244.875 236.367L244.875 300.202L-0.124662 300.202L-0.124646 240.917C-0.124642 223.866 7.77298 217.056 35.7346 210.489Z" fill="#907FFA"/>
</g>
<mask id="mask4_115_4158" style="mask-type:alpha" maskUnits="userSpaceOnUse" x="-1" y="-247" width="246" height="540">
<path fill-rule="evenodd" clip-rule="evenodd" d="M-0.0927734 -246.792L244.877 -246.792L244.877 166.507C244.785 200.414 228.348 219.67 189.623 229.127L29.599 269.539C1.66766 276.853 -0.0775855 292.235 -0.0929139 292.373" fill="white"/>
</mask>
<g mask="url(#mask4_115_4158)">
<path fill-rule="evenodd" clip-rule="evenodd" d="M101.743 194.017L218.667 164.711C218.667 164.711 243.373 157.545 244.871 151L244.871 237.06C243.373 230.489 218.667 223.319 218.667 223.319L101.743 194.017Z" fill="#7E6BFA"/>
</g>
</g>
</g>
</g>
<path fill-rule="evenodd" clip-rule="evenodd" d="M107 112L123 96L123 128L91 128L107 112ZM123 128L155 128C155 128 138.906 131.019 132.783 137.143C126.409 143.516 123 160 123 160L123 128Z" fill="white"/>
<circle cx="27" cy="40" r="3" fill="white"/>
<circle cx="37" cy="40" r="3" fill="white"/>
<circle cx="47" cy="40" r="3" fill="white"/>
<circle cx="57" cy="40" r="3" fill="white"/>
<path d="M80.344 46.216C81.064 46.216 81.7147 46.0533 82.296 45.728C82.8773 45.4027 83.3387 44.9547 83.68 44.384C84.0213 43.808 84.192 43.1547 84.192 42.424C84.192 41.8 84.0693 41.2293 83.824 40.712C83.584 40.1947 83.2373 39.7707 82.784 39.44C82.336 39.104 81.8 38.8933 81.176 38.808L84.024 36.072L84.024 34.48L77.096 34.48L77.096 36.072L81.976 36.072L78.456 39.184L79.24 40.504C79.5973 40.312 79.96 40.216 80.328 40.216C80.968 40.216 81.4853 40.424 81.88 40.84C82.28 41.256 82.48 41.784 82.48 42.424C82.48 43.0587 82.2827 43.584 81.888 44C81.4933 44.4107 80.9787 44.6213 80.344 44.632C79.8747 44.6373 79.448 44.5093 79.064 44.248C78.68 43.9867 78.4107 43.6053 78.256 43.104L76.64 43.552C76.8053 44.096 77.0693 44.568 77.432 44.968C77.8 45.368 78.2347 45.6773 78.736 45.896C79.2373 46.1093 79.7733 46.216 80.344 46.216ZM88.2843 46L89.9883 46L89.9883 34.48L88.2843 34.48L86.1163 35.776L86.1163 37.64L88.2843 36.32L88.2843 46ZM92.7063 45.992L100.498 45.992L100.498 44.4L95.2903 44.4L98.6263 41.424C99.0423 41.056 99.3889 40.7147 99.6663 40.4C99.9436 40.0853 100.152 39.744 100.29 39.376C100.429 39.0027 100.498 38.5547 100.498 38.032C100.498 37.3013 100.33 36.6507 99.9943 36.08C99.6636 35.5093 99.2103 35.0613 98.6343 34.736C98.0583 34.4053 97.4076 34.24 96.6823 34.24C95.9196 34.24 95.2396 34.4 94.6423 34.72C94.0503 35.0347 93.5863 35.4747 93.2503 36.04C92.9143 36.6 92.7463 37.2533 92.7463 38L94.4583 38C94.4529 37.6107 94.5436 37.2533 94.7303 36.928C94.9223 36.5973 95.1836 36.3333 95.5143 36.136C95.8449 35.9333 96.2236 35.832 96.6503 35.832C97.2689 35.832 97.7783 36.04 98.1783 36.456C98.5783 36.872 98.7783 37.3893 98.7783 38.008C98.7783 38.3333 98.7036 38.6587 98.5543 38.984C98.4103 39.304 98.1356 39.6453 97.7303 40.008L92.7143 44.504L92.7063 45.992ZM106.984 46L108.68 46L108.68 43.992L109.824 43.992L109.824 42.408L108.68 42.408L108.68 39.288L106.984 39.288L106.984 42.408L103.696 42.408L107.44 34.48L105.528 34.48L101.784 42.408L101.784 43.992L106.984 43.992L106.984 46Z" fill="white"/>
<g clip-path="url(#clip0_115_4158)">
<path d="M198.333 46.6667C203.488 46.6667 207.667 42.488 207.667 37.3333C207.667 32.1787 203.488 28 198.333 28C193.179 28 189 32.1787 189 37.3333C189 42.488 193.179 46.6667 198.333 46.6667Z" fill="white" fill-opacity="0.7"/>
<path d="M211.667 46.6667C216.821 46.6667 221 42.488 221 37.3333C221 32.1787 216.821 28 211.667 28C206.512 28 202.333 32.1787 202.333 37.3333C202.333 42.488 206.512 46.6667 211.667 46.6667Z" fill="white" fill-opacity="0.5"/>
<path d="M220.37 52.0075L220.37 52.0692L220.429 52.0692C220.441 52.0694 220.452 52.0667 220.461 52.0613C220.465 52.0587 220.468 52.0551 220.471 52.051C220.473 52.0469 220.474 52.0423 220.473 52.0377C220.474 52.0332 220.473 52.0288 220.47 52.0247C220.468 52.0207 220.465 52.0173 220.461 52.0148C220.452 52.0092 220.441 52.0064 220.429 52.0069L220.37 52.0069L220.37 52.0075ZM220.43 51.9639C220.456 51.9623 220.481 51.9694 220.502 51.9839C220.51 51.9905 220.517 51.9988 220.521 52.0083C220.525 52.0178 220.527 52.0282 220.527 52.0385C220.527 52.0474 220.526 52.0563 220.522 52.0646C220.519 52.0729 220.513 52.0803 220.507 52.0865C220.491 52.0999 220.471 52.108 220.449 52.1095L220.529 52.1974L220.468 52.1974L220.394 52.1101L220.37 52.1101L220.37 52.1974L220.319 52.1974L220.319 51.964L220.431 51.964L220.43 51.9639ZM220.414 52.2779C220.441 52.2781 220.468 52.2729 220.493 52.2625C220.516 52.2526 220.538 52.2384 220.557 52.2207C220.575 52.203 220.59 52.182 220.6 52.159C220.621 52.1101 220.621 52.0552 220.6 52.0063C220.59 51.9833 220.575 51.9624 220.557 51.9446C220.538 51.9269 220.516 51.9127 220.493 51.9028C220.468 51.8929 220.441 51.888 220.414 51.8883C220.387 51.888 220.359 51.893 220.334 51.9028C220.31 51.9125 220.287 51.9267 220.269 51.9446C220.24 51.9726 220.221 52.008 220.214 52.0464C220.206 52.0847 220.21 52.1244 220.226 52.1605C220.236 52.1837 220.25 52.2047 220.269 52.2222C220.287 52.2401 220.31 52.2543 220.334 52.264C220.359 52.2744 220.387 52.2797 220.414 52.2794L220.414 52.2779ZM220.414 51.8321C220.484 51.8321 220.552 51.8587 220.602 51.9062C220.626 51.929 220.645 51.9562 220.659 51.9862C220.672 52.0171 220.679 52.0502 220.679 52.0838C220.679 52.1173 220.672 52.1505 220.659 52.1813C220.645 52.2112 220.626 52.2384 220.602 52.2614C220.577 52.2841 220.549 52.3024 220.518 52.3154C220.485 52.3288 220.45 52.3356 220.414 52.3354C220.378 52.3357 220.342 52.3288 220.309 52.3154C220.277 52.3027 220.249 52.2843 220.224 52.2614C220.2 52.2375 220.181 52.2094 220.168 52.1787C220.155 52.1479 220.148 52.1147 220.148 52.0812C220.148 52.0476 220.155 52.0144 220.168 51.9836C220.181 51.9536 220.201 51.9264 220.225 51.9036C220.249 51.8802 220.278 51.8618 220.31 51.8496C220.343 51.8361 220.379 51.8293 220.415 51.8295L220.414 51.8321ZM195.915 50.9309C195.915 50.4859 196.217 50.1204 196.711 50.1204C197.184 50.1204 197.503 50.4702 197.503 50.9309C197.503 51.3916 197.184 51.7414 196.711 51.7414C196.217 51.7414 195.915 51.3759 195.915 50.9309ZM198.041 50.9309L198.041 49.6646L197.47 49.6646L197.47 49.9731C197.289 49.7451 197.014 49.6022 196.64 49.6022C195.904 49.6022 195.327 50.1587 195.327 50.9315C195.327 51.7044 195.904 52.2609 196.64 52.2609C197.014 52.2609 197.289 52.1178 197.47 51.89L197.47 52.1974L198.04 52.1974L198.04 50.9309L198.041 50.9309ZM217.336 50.9309C217.336 50.4859 217.638 50.1204 218.132 50.1204C218.605 50.1204 218.923 50.4702 218.923 50.9309C218.923 51.3916 218.605 51.7414 218.132 51.7414C217.638 51.7414 217.336 51.3759 217.336 50.9309ZM219.462 50.9309L219.462 48.6482L218.891 48.6482L218.891 49.9731C218.71 49.7451 218.435 49.6022 218.061 49.6022C217.325 49.6022 216.748 50.1587 216.748 50.9315C216.748 51.7044 217.325 52.2609 218.061 52.2609C218.435 52.2609 218.71 52.1178 218.891 51.89L218.891 52.1974L219.462 52.1974L219.462 50.9309ZM205.128 50.0943C205.496 50.0943 205.733 50.3167 205.793 50.7084L204.43 50.7084C204.491 50.3428 204.722 50.0943 205.128 50.0943L205.128 50.0943ZM205.14 49.6008C204.37 49.6008 203.832 50.1406 203.832 50.9302C203.832 51.7351 204.392 52.2595 205.178 52.2595C205.574 52.2595 205.936 52.1644 206.255 51.9048L205.975 51.4968C205.755 51.6665 205.474 51.7617 205.211 51.7617C204.843 51.7617 204.508 51.5974 204.425 51.1416L206.375 51.1416C206.381 51.0731 206.387 51.004 206.387 50.93C206.381 50.1408 205.875 49.6006 205.139 49.6006L205.14 49.6008ZM212.034 50.93C212.034 50.485 212.336 50.1195 212.831 50.1195C213.303 50.1195 213.622 50.4693 213.622 50.93C213.622 51.3907 213.303 51.7405 212.831 51.7405C212.336 51.7405 212.034 51.375 212.034 50.93L212.034 50.93ZM214.16 50.93L214.16 49.6646L213.589 49.6646L213.589 49.9731C213.407 49.7451 213.133 49.6022 212.76 49.6022C212.024 49.6022 211.446 50.1587 211.446 50.9315C211.446 51.7044 212.023 52.2609 212.76 52.2609C213.133 52.2609 213.407 52.1178 213.589 51.89L213.589 52.1974L214.16 52.1974L214.16 50.9309L214.16 50.93ZM208.809 50.93C208.809 51.698 209.364 52.2594 210.21 52.2594C210.606 52.2594 210.869 52.1745 211.154 51.9575L210.88 51.5126C210.665 51.6611 210.44 51.7405 210.192 51.7405C209.736 51.7351 209.401 51.4174 209.401 50.93C209.401 50.4426 209.736 50.125 210.192 50.1195C210.44 50.1195 210.665 50.1989 210.88 50.3474L211.154 49.9025C210.869 49.6854 210.605 49.6006 210.21 49.6006C209.364 49.6006 208.809 50.1619 208.809 50.93ZM216.171 49.6006C215.841 49.6006 215.627 49.7491 215.478 49.9716L215.478 49.6646L214.912 49.6646L214.912 52.196L215.484 52.196L215.484 50.777C215.484 50.3581 215.671 50.1253 216.044 50.1253C216.166 50.1236 216.288 50.1453 216.401 50.189L216.577 49.6702C216.451 49.6222 216.286 49.6011 216.17 49.6011L216.171 49.6006ZM200.864 49.8659C200.589 49.6913 200.211 49.6011 199.793 49.6011C199.128 49.6011 198.7 49.9085 198.7 50.4114C198.7 50.8242 199.019 51.0788 199.606 51.1583L199.875 51.1953C200.189 51.2377 200.336 51.3171 200.336 51.4601C200.336 51.6558 200.128 51.7675 199.738 51.7675C199.342 51.7675 199.057 51.6457 198.864 51.5027L198.596 51.9319C198.909 52.1543 199.305 52.2605 199.733 52.2605C200.491 52.2605 200.931 51.9162 200.931 51.4342C200.931 50.9892 200.585 50.7565 200.014 50.677L199.744 50.6394C199.497 50.6086 199.299 50.5606 199.299 50.3909C199.299 50.2058 199.486 50.0945 199.799 50.0945C200.134 50.0945 200.459 50.2163 200.618 50.3115L200.865 49.8665L200.864 49.8659ZM208.232 49.6015C207.903 49.6015 207.688 49.7501 207.541 49.9725L207.541 49.6646L206.975 49.6646L206.975 52.196L207.546 52.196L207.546 50.777C207.546 50.3581 207.732 50.1253 208.106 50.1253C208.228 50.1236 208.349 50.1453 208.463 50.189L208.639 49.6702C208.512 49.6222 208.348 49.6011 208.232 49.6011L208.232 49.6015ZM203.359 49.6646L202.426 49.6646L202.426 48.8967L201.848 48.8967L201.848 49.6646L201.316 49.6646L201.316 50.1678L201.848 50.1678L201.848 51.3225C201.848 51.9099 202.085 52.2597 202.76 52.2597C203.008 52.2597 203.294 52.1857 203.475 52.064L203.31 51.5926C203.139 51.6878 202.953 51.7357 202.804 51.7357C202.519 51.7357 202.426 51.5661 202.426 51.312L202.426 50.1682L203.359 50.1682L203.359 49.6646ZM194.822 52.1966L194.822 50.6079C194.822 50.0097 194.426 49.6071 193.789 49.6017C193.454 49.5963 193.108 49.6969 192.866 50.0521C192.685 49.7714 192.399 49.6017 191.998 49.6017C191.717 49.6017 191.443 49.6811 191.229 49.9776L191.229 49.6646L190.657 49.6646L190.657 52.196L191.233 52.196L191.233 50.7924C191.233 50.353 191.486 50.1195 191.876 50.1195C192.256 50.1195 192.447 50.3578 192.447 50.7869L192.447 52.1957L193.025 52.1957L193.025 50.7921C193.025 50.3527 193.288 50.1192 193.667 50.1192C194.057 50.1192 194.243 50.3575 194.243 50.7866L194.243 52.1954L194.822 52.1966Z" fill="white"/>
</g>
<defs>
<clipPath id="clip0_115_4158">
<rect width="32" height="32" fill="white" transform="translate(189 24)"/>
</clipPath>
</defs>
</svg>
